<svg width="297" height="276" viewBox="0 0 297 276" fill="none" xmlns="http://www.w3.org/2000/svg">
<rect width="297" height="276" rx="73" fill="#FBDB7F"/>
<path d="M102.746 200V76.3636H152.249C161.344 76.3636 168.931 77.7119 175.008 80.4084C181.085 83.1049 185.653 86.8478 188.712 91.6371C191.77 96.3861 193.3 101.86 193.3 108.058C193.3 112.887 192.334 117.133 190.402 120.795C188.47 124.418 185.814 127.396 182.433 129.73C179.093 132.024 175.269 133.654 170.963 134.62V135.827C175.672 136.029 180.079 137.357 184.184 139.812C188.329 142.267 191.69 145.708 194.266 150.135C196.841 154.522 198.129 159.754 198.129 165.831C198.129 172.391 196.499 178.247 193.239 183.398C190.02 188.51 185.25 192.554 178.932 195.533C172.613 198.511 164.826 200 155.569 200H102.746ZM128.886 178.629H150.196C157.481 178.629 162.793 177.241 166.134 174.464C169.474 171.647 171.144 167.904 171.144 163.235C171.144 159.814 170.319 156.796 168.669 154.18C167.019 151.564 164.665 149.511 161.606 148.022C158.587 146.533 154.985 145.788 150.8 145.788H128.886V178.629ZM128.886 128.1H148.264C151.846 128.1 155.026 127.476 157.803 126.229C160.62 124.941 162.833 123.13 164.443 120.795C166.093 118.461 166.918 115.664 166.918 112.404C166.918 107.937 165.329 104.335 162.149 101.598C159.01 98.8613 154.543 97.4929 148.747 97.4929H128.886V128.1Z" fill="white"/>
</svg>
